<?xml version="1.0" standalone="no"?>
<!DOCTYPE svg PUBLIC "-//W3C//DTD SVG 20010904//EN"
 "http://www.w3.org/TR/2001/REC-SVG-20010904/DTD/svg10.dtd">
<svg version="1.0" xmlns="http://www.w3.org/2000/svg"
 width="700.000000pt" height="700.000000pt" viewBox="0 0 700.000000 700.000000"
 preserveAspectRatio="xMidYMid meet">
<metadata>
Created by potrace 1.14, written by Peter Selinger 2001-2017
</metadata>
<g transform="translate(0.000000,700.000000) scale(0.100000,-0.100000)"
fill="#000000" stroke="none">
<path d="M3395 6709 c-311 -48 -557 -269 -645 -579 -30 -107 -36 -244 -16
-353 16 -86 82 -301 124 -405 l22 -52 -53 -26 c-28 -13 -446 -206 -927 -428
-666 -307 -880 -410 -895 -431 -20 -26 -20 -40 -20 -1365 0 -1323 0 -1339 20
-1365 15 -20 309 -160 1210 -575 655 -302 1203 -556 1218 -564 36 -20 101 -20
135 -1 15 9 563 263 1217 564 901 416 1195 556 1210 576 20 26 20 42 20 1365
0 1326 0 1339 -20 1365 -15 21 -241 129 -949 456 -511 236 -930 430 -931 432
-1 1 20 61 46 134 84 228 102 309 103 458 1 107 -3 144 -22 210 -97 339 -371
567 -708 588 -43 3 -106 1 -139 -4z m-142 -2214 c82 -165 156 -301 172 -315
20 -19 38 -25 70 -25 32 0 50 6 70 25 16 14 90 150 172 315 79 160 147 291
151 293 7 2 924 -377 960 -397 15 -8 14 -11 -8 -19 -14 -6 -317 -132 -674
-281 -358 -149 -657 -271 -665 -271 -16 0 -1340 548 -1354 560 -7 7 940 409
955 406 4 0 72 -131 151 -291z m-948 -1265 l1080 -498 3 -122 c2 -113 1 -120
-15 -112 -10 5 -501 231 -1090 503 l-1073 494 0 118 c0 64 3 117 8 117 4 -1
493 -225 1087 -500z m3485 382 l0 -117 -1082 -499 c-596 -275 -1087 -501
-1091 -503 -4 -3 -6 50 -5 117 l3 121 1080 499 c594 275 1083 500 1088 500 4
0 7 -53 7 -118z m-3235 -1124 l830 -383 3 -122 3 -121 -1088 502 -1088 502 -3
121 -3 121 258 -119 c142 -65 632 -291 1088 -501z m3228 381 c-23 -22 -536
-249 -563 -249 -23 0 -42 10 -66 34 -42 42 -47 100 -11 140 13 16 141 80 332
169 l310 143 3 -115 c1 -63 -1 -118 -5 -122z"/>
</g>
</svg>
